<svg 
	xmlns="http://www.w3.org/2000/svg" 
	xmlns:xlink="http://www.w3.org/1999/xlink" viewBox="0 0 89 80">
	<g>
		<path fill="#FFFFFF" d="M86.746,11.088c0,0-3.492-2.005-14.007-4.068l-0.646,0.831c5.52,1.083,10.456,2.323,13.531,3.581
		L72.568,31.763c0.036-0.595,0.058-1.194,0.058-1.797c0-6.046-1.879-11.652-5.083-16.27l-0.486,0.623
		c3.038,4.459,4.815,9.845,4.815,15.646c0,9.851-5.121,18.507-12.847,23.449l0.459,0.601c6.998-4.499,11.902-11.968,12.937-20.625
		L86.746,11.088z"/>
		<polygon fill="#FFFFFF" points="44.5,75.465 33.232,57.924 32.745,58.559 44.5,76.859 56.162,58.703 55.674,58.067 	"/>
		<path fill="#FFFFFF" d="M28.655,5.892c-1.298,0.832-2.522,1.767-3.665,2.791l0.467,0.593c4.928-4.432,11.446-7.129,18.595-7.129
		c7.263,0,13.875,2.784,18.829,7.342l0.462-0.6c-1.281-1.172-2.668-2.229-4.145-3.154c1.939,0.263,3.922,0.556,5.898,0.873
		l0.611-0.795c-2.469-0.37-5.199-0.729-8.215-1.066c-4.006-2.139-8.582-3.354-13.441-3.354c-4.958,0-9.62,1.263-13.683,3.484
		c-2.77,0.321-5.292,0.662-7.582,1.013l0.628,0.796C25.165,6.4,26.923,6.135,28.655,5.892z"/>
		<path fill="#FFFFFF" d="M15.766,34.008c0.249,0.015,0.506,0.036,0.77,0.063c-0.198-1.34-0.302-2.71-0.302-4.104
		c0-6.048,1.931-11.646,5.208-16.209l-0.486-0.613c-3.443,4.72-5.477,10.532-5.477,16.822c0,0.108,0.003,0.217,0.004,0.325
		L3.369,11.432c3.054-1.248,7.939-2.479,13.412-3.557l-0.656-0.828C5.716,9.101,2.254,11.088,2.254,11.088L15.538,31.77
		C15.585,32.524,15.661,33.271,15.766,34.008z"/>
		<path fill="#FFFFFF" d="M21.942,46.847c-0.288,0.03-0.588,0.051-0.898,0.062c2.164,2.935,4.876,5.439,7.986,7.365l0.456-0.604
		C26.571,51.874,24.014,49.557,21.942,46.847z"/>
		<path fill="#FFFFFF" d="M54.037,55.938c-3.1,1.192-6.465,1.847-9.984,1.847c-3.318,0-6.5-0.582-9.45-1.647l-0.482,0.627
		c3.094,1.146,6.44,1.774,9.932,1.774c3.693,0,7.223-0.701,10.464-1.977L54.037,55.938z"/>
		<path fill="#FFFFFF" d="M17.905,62.227l-1.204-0.385c-0.048,0.385-0.673,2.792-0.818,3.081c-0.146,0.29-0.434,0.481-0.193-0.337
		c0.241-0.817,0.48-1.926,0.337-2.889l-2.552-0.818c-0.049,0.723-0.481,2.792-0.722,3.37c-0.241,0.577-0.338,0.192-0.193-0.337
		c0.145-0.529,0.289-2.407,0.289-2.6s-0.289-0.337-0.289-0.627l-0.674-0.191l-1.012,5.055l2.794,0.434
		c0.384-0.434,0.577-2.263,0.529-2.937s0.289-0.674,0.289,0s0.049,2.792-0.145,2.984l3.083,0.579
		c0.144-0.724,0.578-3.179,0.529-3.468C17.905,62.854,17.809,62.42,17.905,62.227z"/>
		<path fill="#FFFFFF" d="M76.338,60.41c-0.037,0.36-0.181,0.505-0.289,0.613c-0.107,0.107,0.181,2.455,0.217,2.925
		c0.035,0.47-0.18,0.794-0.361,0.107c-0.181-0.687-0.686-3.538-0.686-3.538l-2.492,0.759c0.035,0.216,0,0.325-0.072,0.542
		c-0.072,0.216,0.037,0.288,0.107,0.649c0.074,0.361,0.289,1.77,0.289,2.166c0,0.398-0.18,0.614-0.324-0.072
		c-0.145-0.686-0.578-2.78-0.723-3.032l-1.118,0.324c0.035,0.217,0,0.397-0.108,0.65c-0.109,0.252,0,0.398,0.072,0.975
		c0.071,0.577,0.289,2.709,0.289,2.709l2.599-0.397c-0.035-0.434,0.29-2.601,0.47-3.069c0.181-0.47,0.506-0.434,0.434,0.182
		c-0.072,0.613,0.109,2.454,0.217,2.743l2.816-0.397l-0.722-5.2C76.771,60.048,76.373,60.048,76.338,60.41z"/>
		<path fill="#FFFFFF" d="M30.365,33.865c0.59-0.204,3.275-2.732,3.407-2.816c-0.252,0-1.505-0.085-1.722-1.723
		C31.581,29.471,28.848,30.579,30.365,33.865z"/>
		<path fill="#FFFFFF" d="M54.035,8.452c-4.422-6.064-8.777-3.285-9.549-2.804c-0.771,0.481-8.716,4.622-11.182,13.931
		c-0.171,0.647-0.311,1.253-0.423,1.818c0.231,6.559,1.717,6.365,3.318,5.56c0.073-0.567,0.332-0.979,0.572-1.383
		c0.665,2.229,2.153,1.959,3.814,1.55s5.344-2.407,8.089-3.636c2.745-1.227,5.172,0.647,6.183,1.536
		c-0.674-0.385-2.234-0.308-2.744,0.087c-0.762,9.207-9.12,8.562-11.687,5.114c-1.926,0.48-3.116-0.116-3.669-0.926
		c-3.37,3.757-7.151,6.781-10.603,7.773c0.673,0.288,4.512,2.28,6.168,4.246c-4.709-3.328-9.447-4.786-12.532-5.441
		c-1.382-0.294-2.432-0.427-2.998-0.494c-2.558-0.303-4.116-0.037-5.022,0.516c-1.259,2.047,0.187,2.125,2.451,2.445
		c9.973,1.409,14.433,9.411,20.296,12.061c12.785,5.777,21.092-0.866,22.391-1.95c1.158-0.965,1.98-2.185,2.971-3.77
		C64.681,30.675,58.153,14.097,54.035,8.452z M36.528,21.273c-0.238,0.842-0.893,1.394-1.463,1.233
		c-0.57-0.161-0.84-0.974-0.603-1.815c0.237-0.843,0.892-1.395,1.462-1.232C36.495,19.619,36.766,20.432,36.528,21.273z
		 M37.234,16.085c-0.517-0.29-0.587-1.144-0.157-1.905c0.429-0.762,1.196-1.144,1.711-0.853c0.517,0.292,0.585,1.145,0.157,1.907
		C38.516,15.994,37.75,16.377,37.234,16.085z M40.874,24.406c-0.725,0.488-1.581,0.485-1.913-0.005
		c-0.33-0.491-0.011-1.285,0.714-1.774c0.726-0.488,1.581-0.487,1.913,0.005C41.918,23.123,41.599,23.917,40.874,24.406z
		 M43.239,10.179c-0.484,0.729-1.274,1.053-1.77,0.726c-0.493-0.328-0.502-1.185-0.018-1.912c0.483-0.729,1.277-1.053,1.769-0.726
		C43.716,8.594,43.724,9.451,43.239,10.179z M46.58,20.65c-0.725,0.489-1.582,0.486-1.912-0.004
		c-0.332-0.491-0.012-1.286,0.714-1.775c0.724-0.488,1.58-0.487,1.912,0.005C47.624,19.366,47.305,20.162,46.58,20.65z
		 M53.023,17.92c-0.783,0.39-1.632,0.275-1.896-0.256c-0.263-0.53,0.157-1.275,0.941-1.665c0.782-0.389,1.631-0.274,1.895,0.256
		S53.806,17.531,53.023,17.92z M35.144,34.47c-0.09-0.869,0.314-1.625,0.904-1.686c0.589-0.061,1.14,0.596,1.23,1.466
		c0.089,0.87-0.316,1.625-0.905,1.686S35.233,35.34,35.144,34.47z M36.011,39.958c-0.09-0.868,0.314-1.622,0.905-1.683
		c0.589-0.062,1.139,0.594,1.228,1.464c0.09,0.869-0.314,1.623-0.904,1.685C36.65,41.484,36.1,40.829,36.011,39.958z M40.191,45.865
		c-0.335,0.488-1.191,0.483-1.912-0.011c-0.721-0.495-1.035-1.293-0.699-1.78c0.334-0.488,1.191-0.482,1.911,0.011
		C40.212,44.58,40.526,45.376,40.191,45.865z M42.156,35.188c-0.39,0.447-1.239,0.341-1.897-0.233
		c-0.658-0.575-0.876-1.404-0.485-1.85c0.389-0.446,1.239-0.342,1.896,0.234C42.329,33.915,42.545,34.744,42.156,35.188z
		 M45.84,39.739c-0.39,0.445-1.239,0.342-1.898-0.233c-0.658-0.577-0.875-1.404-0.486-1.851c0.39-0.446,1.239-0.341,1.898,0.234
		C46.012,38.466,46.23,39.292,45.84,39.739z M49.467,44.849c-0.463,0.37-1.282,0.116-1.828-0.566
		c-0.546-0.682-0.613-1.536-0.15-1.907c0.462-0.369,1.28-0.116,1.826,0.567C49.861,43.625,49.929,44.479,49.467,44.849z
		 M49.105,34.277c-0.264-0.531,0.156-1.276,0.939-1.666c0.783-0.389,1.633-0.274,1.896,0.256c0.264,0.531-0.158,1.276-0.941,1.665
		C50.218,34.922,49.369,34.808,49.105,34.277z M53.294,49.615c-0.463,0.37-1.279,0.116-1.825-0.565
		c-0.547-0.683-0.615-1.537-0.153-1.906c0.464-0.371,1.281-0.118,1.827,0.565C53.689,48.393,53.756,49.245,53.294,49.615z
		 M57.355,31.932c-0.782,0.391-1.63,0.276-1.895-0.255c-0.264-0.531,0.157-1.276,0.941-1.665c0.782-0.39,1.631-0.275,1.893,0.255
		C58.561,30.797,58.14,31.543,57.355,31.932z"/>
		<path fill="#FFFFFF" d="M34.934,21.938c-0.126-0.532-0.126-1.219,0.27-1.995C35.041,20.116,34.446,21,34.934,21.938z"/>
		<path fill="#FFFFFF" d="M37.171,15.523c0.02-0.547,0.203-1.207,0.792-1.851C37.761,13.794,36.951,14.488,37.171,15.523z"/>
		<path fill="#FFFFFF" d="M41.47,10.345c0.079-0.541,0.333-1.18,0.989-1.756C42.244,8.69,41.363,9.292,41.47,10.345z"/>
		<path fill="#FFFFFF" d="M49.326,33.718c0.344-0.426,0.887-0.846,1.744-1.007C50.836,32.688,49.771,32.757,49.326,33.718z"/>
		<path fill="#FFFFFF" d="M55.685,31.238c0.321-0.443,0.841-0.892,1.688-1.098C57.137,30.129,56.077,30.256,55.685,31.238z"/>
		<path fill="#FFFFFF" d="M40.208,33.148c0.535,0.119,1.153,0.417,1.678,1.113C41.802,34.041,41.265,33.119,40.208,33.148z"/>
		<path fill="#FFFFFF" d="M36.794,35.313c0.091-0.218,0.328-1.258-0.463-1.958C36.64,33.805,36.886,34.445,36.794,35.313z"/>
		<path fill="#FFFFFF" d="M37.137,38.623c0.33,0.438,0.606,1.064,0.554,1.936C37.771,40.338,37.961,39.286,37.137,38.623z"/>
		<path fill="#FFFFFF" d="M44.124,37.576c0.505,0.21,1.063,0.611,1.46,1.388C45.539,38.731,45.17,37.73,44.124,37.576z"/>
		<path fill="#FFFFFF" d="M48,42.513c0.506,0.209,1.063,0.61,1.459,1.387C49.416,43.668,49.047,42.666,48,42.513z"/>
		<path fill="#FFFFFF" d="M51.779,47.305c0.506,0.208,1.063,0.609,1.46,1.386C53.195,48.459,52.826,47.457,51.779,47.305z"/>
		<path fill="#FFFFFF" d="M38.467,43.994c0.52,0.172,1.104,0.53,1.559,1.275C39.964,45.041,39.521,44.07,38.467,43.994z"/>
		<path fill="#FFFFFF" d="M51.344,17.284c0.305-0.454,0.807-0.922,1.646-1.159C52.754,16.123,51.701,16.288,51.344,17.284z"/>
		<path fill="#FFFFFF" d="M44.843,20.174c0.306-0.455,0.808-0.922,1.647-1.16C46.253,19.013,45.199,19.179,44.843,20.174z"/>
		<path fill="#FFFFFF" d="M39.209,23.736c0.304-0.455,0.807-0.922,1.646-1.159C40.62,22.575,39.565,22.741,39.209,23.736z"/>
		<path fill="#A7B1B7" d="M36.555,28.854c-0.345-0.812-0.418-1.41-0.356-1.896c-1.601,0.806-3.087,0.999-3.318-5.56
		C31.238,29.655,35.55,29.488,36.555,28.854z"/>
		<path fill="#A7B1B7" d="M37.599,28.881c1.277,0.867,2.886,0.361,3.384,0.25c0.781-0.177,6.849-3.813,7.378-4.005
		s3.561-1.979,6.496-0.102c-1.011-0.889-3.438-2.763-6.183-1.536c-2.745,1.229-6.428,3.227-8.089,3.636s-3.149,0.68-3.814-1.55
		C36.578,26.369,36.484,28.124,37.599,28.881z"/>
		<path fill="#A7B1B7" d="M56.908,48.455c-1.299,1.084-9.605,7.728-22.391,1.95c-5.863-2.649-10.323-10.651-20.296-12.061
		c-2.265-0.32-3.71-0.398-2.451-2.445c-2.196,1.34-0.563,4.362-0.041,5.062c4.327,5.784,10.177,4.947,12.837,4.018
		c0.1-0.035,0.197-0.07,0.288-0.105c-0.156-0.236-0.415-0.496-0.749-0.772c-2.208-1.825-7.806-4.354-10.173-5.453
		c3.118,0.174,6.64,2.053,9.366,3.914c1.82,1.243,3.286,2.479,4.037,3.193c15.56,14.787,28.048,5.126,30.598,3.322
		c0.79-1.423,1.432-2.893,1.945-4.392C58.889,46.271,58.066,47.49,56.908,48.455z"/>
		<polygon fill="#FDB827" points="6.782,64.875 10.057,65.453 11.405,60.349 8.42,59.386 	"/>
		<polygon fill="#FDB827" points="23.25,63.816 18.627,62.468 17.568,66.609 24.406,67.572 35.192,53.512 32.399,51.681 	"/>
		<polygon fill="#FDB827" points="80.203,59.097 77.182,59.951 78.528,65.165 81.947,64.586 	"/>
		<polygon fill="#FDB827" points="65.336,63.527 56.572,52.066 53.635,53.56 64.18,67.283 70.982,66.212 70.066,62.143 	"/>
		<path fill="#FDB827" d="M32.014,19.42L19.109,3.048l-3.948,0.963l16.178,20.416C31.243,23.657,31.725,20.383,32.014,19.42z"/>
		<path fill="#FDB827" d="M59.557,15.665c0.482,1.347,1.156,3.467,1.35,4.718L73.426,4.3l-4.239-1.155L59.557,15.665z"/>
		<path fill="#006A65" d="M16.781,7.875c-5.473,1.077-10.358,2.309-13.412,3.557l12.114,18.859c-0.001-0.108-0.004-0.217-0.004-0.325
		c0-6.29,2.034-12.103,5.477-16.822L16.781,7.875z"/>
		<path fill="#006A65" d="M63.344,8.889l1.754-2.281c-1.977-0.317-3.959-0.61-5.898-0.873C60.676,6.66,62.063,7.717,63.344,8.889z"/>
		<path fill="#006A65" d="M85.625,11.432c-3.075-1.258-8.012-2.498-13.531-3.581l-4.551,5.846c3.204,4.617,5.083,10.224,5.083,16.27
		c0,0.603-0.021,1.202-0.058,1.797L85.625,11.432z"/>
		<path fill="#006A65" d="M24.99,8.683c1.143-1.024,2.367-1.959,3.665-2.791c-1.732,0.243-3.49,0.509-5.239,0.794L24.99,8.683z"/>
		<path fill="#006A65" d="M44.053,58.538c-3.492,0-6.838-0.628-9.932-1.774l-0.889,1.16L44.5,75.465l11.174-17.397l-1.157-1.506
		C51.275,57.837,47.746,58.538,44.053,58.538z"/>
		<path fill="#231F20" d="M66.359,60.402l-4.836-6.324c6.291-4.565,10.727-11.53,11.959-19.553L89,10.368
		c0,0-4.182-2.09-13.573-4.225l2.638-3.39L68.146,0.05l-3.176,4.127c-2.461-0.378-5.127-0.732-8.007-1.052
		c-3.906-1.882-8.286-2.938-12.911-2.938c-4.731,0-9.204,1.105-13.176,3.068c-2.637,0.308-5.087,0.646-7.36,1.001L20.16,0
		l-9.752,2.379l3.011,3.8C4.135,8.302,0,10.368,0,10.368l13.978,21.761c-2.779,0.177-4.712,1.179-5.762,3
		c-1.653,2.866-0.082,6.309,0.981,7.728c2.439,3.261,5.686,5.269,9.387,5.804c0.844,0.122,1.651,0.16,2.408,0.143
		c1.73,2.116,3.747,3.988,5.989,5.562l-4.769,6.324L6.615,55.954L3.313,67.016l22.283,3.463l7.083-9.235L44.5,79.647l11.729-18.261
		l6.782,8.825l22.466-3.473l-3.485-10.966L66.359,60.402z M14.486,63.046c0-0.674-0.336-0.674-0.289,0s-0.145,2.503-0.529,2.937
		l-2.794-0.434l1.012-5.055l0.674,0.191c0,0.29,0.289,0.435,0.289,0.627s-0.144,2.07-0.289,2.6
		c-0.145,0.529-0.047,0.914,0.193,0.337c0.241-0.578,0.673-2.647,0.722-3.37l2.552,0.818c0.143,0.963-0.097,2.071-0.337,2.889
		c-0.241,0.818,0.047,0.627,0.193,0.337c0.145-0.289,0.77-2.696,0.818-3.081l1.204,0.385c-0.096,0.193,0,0.627,0.048,0.915
		c0.049,0.289-0.385,2.744-0.529,3.468l-3.083-0.579C14.535,65.838,14.486,63.72,14.486,63.046z M11.405,60.349l-1.348,5.104
		l-3.275-0.578l1.639-5.489L11.405,60.349z M17.568,66.609l1.059-4.142l4.623,1.349l9.149-12.136l2.792,1.831L24.406,67.572
		L17.568,66.609z M27.336,45.755c-0.751-0.715-2.217-1.95-4.037-3.193c-2.726-1.861-6.248-3.74-9.366-3.914
		c2.368,1.1,7.965,3.628,10.173,5.453c0.333,0.276,0.592,0.536,0.749,0.772c-0.091,0.035-0.188,0.07-0.288,0.105
		c-2.66,0.93-8.51,1.767-12.837-4.018c-0.522-0.699-2.156-3.722,0.041-5.062c0.906-0.553,2.464-0.818,5.022-0.516
		c0.566,0.067,1.616,0.2,2.998,0.494c3.084,0.655,7.823,2.113,12.532,5.441c-1.656-1.966-5.495-3.958-6.168-4.246
		c3.452-0.992,7.233-4.017,10.603-7.773c0.554,0.81,1.743,1.406,3.669,0.926c2.567,3.447,10.925,4.093,11.687-5.114
		c0.51-0.395,2.07-0.472,2.744-0.087c-2.936-1.878-5.967-0.091-6.496,0.102s-6.597,3.828-7.378,4.005
		c-0.499,0.111-2.107,0.617-3.384-0.25c-1.115-0.757-1.021-2.512-0.828-3.307c-0.241,0.404-0.499,0.815-0.572,1.383
		c-0.062,0.486,0.012,1.085,0.356,1.896c-1.005,0.635-5.317,0.802-3.674-7.456c0.112-0.565,0.252-1.171,0.423-1.818
		C35.771,10.271,43.716,6.13,44.486,5.648c0.771-0.481,5.127-3.261,9.549,2.804c4.118,5.645,10.646,22.223,5.844,36.233
		c-0.514,1.499-1.155,2.969-1.945,4.392C55.384,50.881,42.896,60.542,27.336,45.755z M19.109,3.048L32.014,19.42
		c-0.29,0.963-0.771,4.237-0.675,5.007L15.161,4.011L19.109,3.048z M32.05,29.326c0.217,1.638,1.47,1.723,1.722,1.723
		c-0.132,0.084-2.817,2.612-3.407,2.816C28.848,30.579,31.581,29.471,32.05,29.326z M73.426,4.3l-12.52,16.083
		c-0.193-1.251-0.867-3.371-1.35-4.718l9.63-12.521L73.426,4.3z M56.572,52.066l8.764,11.461l4.73-1.385l0.916,4.069l-6.803,1.071
		L53.635,53.56L56.572,52.066z M74.207,62.721c-0.18,0.469-0.505,2.636-0.47,3.069l-2.599,0.397c0,0-0.218-2.132-0.289-2.709
		c-0.072-0.576-0.182-0.723-0.072-0.975c0.108-0.253,0.144-0.434,0.108-0.65l1.118-0.324c0.145,0.252,0.578,2.347,0.723,3.032
		c0.145,0.687,0.324,0.471,0.324,0.072c0-0.396-0.215-1.805-0.289-2.166c-0.07-0.361-0.18-0.434-0.107-0.649
		c0.072-0.217,0.107-0.326,0.072-0.542l2.492-0.759c0,0,0.505,2.852,0.686,3.538c0.182,0.687,0.396,0.362,0.361-0.107
		c-0.036-0.47-0.324-2.817-0.217-2.925c0.108-0.108,0.252-0.253,0.289-0.613c0.035-0.362,0.434-0.362,0.614-0.362l0.722,5.2
		l-2.816,0.397c-0.107-0.289-0.289-2.13-0.217-2.743C74.713,62.287,74.388,62.251,74.207,62.721z M78.528,65.165l-1.347-5.214
		l3.021-0.854l1.744,5.489L78.528,65.165z M86.746,11.088L72.421,33.391c-1.034,8.657-5.938,16.126-12.937,20.625l-0.459-0.601
		c7.726-4.942,12.847-13.599,12.847-23.449c0-5.802-1.777-11.188-4.815-15.646l0.486-0.623l4.551-5.846l0.646-0.831
		C83.254,9.083,86.746,11.088,86.746,11.088z M30.37,4.877c4.063-2.222,8.726-3.484,13.683-3.484c4.859,0,9.436,1.215,13.441,3.354
		c3.016,0.337,5.746,0.696,8.215,1.066l-0.611,0.795l-1.754,2.281l-0.462,0.6c-4.954-4.558-11.566-7.342-18.829-7.342
		c-7.149,0-13.667,2.697-18.595,7.129L24.99,8.683l-1.574-1.997L22.788,5.89C25.078,5.539,27.6,5.198,30.37,4.877z M2.254,11.088
		c0,0,3.462-1.987,13.871-4.041l0.656,0.828l4.175,5.269l0.486,0.613c-3.278,4.563-5.208,10.161-5.208,16.209
		c0,1.395,0.104,2.765,0.302,4.104c-0.264-0.026-0.521-0.048-0.77-0.063c-0.105-0.737-0.181-1.483-0.228-2.238L2.254,11.088z
		 M21.044,46.908c0.31-0.011,0.61-0.031,0.898-0.062c2.071,2.71,4.629,5.027,7.544,6.822l-0.456,0.604
		C25.921,52.348,23.208,49.843,21.044,46.908z M44.5,76.859L32.745,58.559l0.487-0.635l0.889-1.16l0.482-0.627
		c2.95,1.065,6.132,1.647,9.45,1.647c3.52,0,6.885-0.654,9.984-1.847l0.479,0.624l1.157,1.506l0.488,0.636L44.5,76.859z"/>
		<path fill="#231F20" d="M50.514,75.071c-0.943,0-1.709,0.765-1.709,1.709c0,0.943,0.766,1.708,1.709,1.708s1.708-0.765,1.708-1.708
		C52.222,75.836,51.457,75.071,50.514,75.071z M50.514,78.122c-0.742,0-1.342-0.602-1.342-1.342c0-0.742,0.6-1.343,1.342-1.343
		c0.741,0,1.342,0.601,1.342,1.343C51.855,77.521,51.255,78.122,50.514,78.122z"/>
		<path fill="#231F20" d="M51.215,76.384c0-0.32-0.26-0.58-0.579-0.58h-0.823v1.952h0.365v-0.793h0.263l0.37,0.793h0.404L50.83,76.93
		C51.055,76.85,51.215,76.636,51.215,76.384z M50.636,76.597h-0.458V76.17h0.458c0.116,0,0.213,0.096,0.213,0.214
		C50.849,76.501,50.752,76.597,50.636,76.597z"/>
		<path fill="#231F20" d="M43.221,8.267c-0.492-0.327-1.286-0.003-1.769,0.726c-0.484,0.728-0.475,1.584,0.018,1.912
		c0.495,0.327,1.286,0.004,1.77-0.726C43.724,9.451,43.716,8.594,43.221,8.267z M41.47,10.345c-0.106-1.053,0.774-1.654,0.989-1.756
		C41.802,9.165,41.548,9.804,41.47,10.345z"/>
		<path fill="#231F20" d="M38.789,13.327c-0.516-0.291-1.282,0.091-1.711,0.853c-0.43,0.762-0.359,1.615,0.157,1.905
		c0.515,0.292,1.282-0.091,1.711-0.851C39.374,14.472,39.306,13.619,38.789,13.327z M37.171,15.523
		c-0.22-1.035,0.59-1.729,0.792-1.851C37.374,14.316,37.191,14.977,37.171,15.523z"/>
		<path fill="#231F20" d="M35.925,19.459c-0.57-0.162-1.225,0.39-1.462,1.232c-0.238,0.842,0.033,1.654,0.603,1.815
		c0.57,0.16,1.225-0.392,1.463-1.233C36.766,20.432,36.495,19.619,35.925,19.459z M34.934,21.938
		c-0.488-0.938,0.107-1.822,0.27-1.995C34.808,20.72,34.808,21.406,34.934,21.938z"/>
		<path fill="#231F20" d="M39.674,22.627c-0.725,0.489-1.043,1.283-0.714,1.774c0.333,0.49,1.188,0.493,1.913,0.005
		c0.725-0.489,1.045-1.283,0.714-1.774C41.255,22.14,40.4,22.139,39.674,22.627z M39.209,23.736
		c0.356-0.995,1.411-1.161,1.646-1.159C40.017,22.814,39.513,23.281,39.209,23.736z"/>
		<path fill="#231F20" d="M45.382,18.871c-0.726,0.489-1.046,1.284-0.714,1.775c0.33,0.49,1.188,0.493,1.912,0.004
		c0.725-0.488,1.044-1.284,0.714-1.774C46.962,18.384,46.105,18.383,45.382,18.871z M44.843,20.174
		c0.356-0.995,1.41-1.161,1.647-1.16C45.65,19.252,45.148,19.719,44.843,20.174z"/>
		<path fill="#231F20" d="M52.068,15.999c-0.784,0.39-1.204,1.135-0.941,1.665c0.265,0.531,1.113,0.646,1.896,0.256
		c0.782-0.389,1.203-1.135,0.939-1.665S52.851,15.61,52.068,15.999z M51.344,17.284c0.357-0.996,1.41-1.161,1.646-1.159
		C52.15,16.362,51.648,16.83,51.344,17.284z"/>
		<path fill="#231F20" d="M51,34.532c0.783-0.389,1.205-1.134,0.941-1.665c-0.264-0.53-1.113-0.645-1.896-0.256
		c-0.783,0.39-1.203,1.135-0.939,1.666C49.369,34.808,50.218,34.922,51,34.532z M51.07,32.711c-0.857,0.161-1.4,0.581-1.744,1.007
		C49.771,32.757,50.836,32.688,51.07,32.711z"/>
		<path fill="#231F20" d="M57.355,31.932c0.784-0.389,1.205-1.135,0.939-1.665c-0.262-0.53-1.11-0.645-1.893-0.255
		c-0.784,0.389-1.205,1.134-0.941,1.665C55.726,32.208,56.573,32.322,57.355,31.932z M57.373,30.141
		c-0.848,0.206-1.367,0.654-1.688,1.098C56.077,30.256,57.137,30.129,57.373,30.141z"/>
		<path fill="#231F20" d="M36.373,35.936c0.589-0.061,0.995-0.815,0.905-1.686c-0.09-0.87-0.641-1.526-1.23-1.466
		c-0.589,0.061-0.994,0.816-0.904,1.686C35.233,35.34,35.783,35.996,36.373,35.936z M36.794,35.313
		c0.092-0.867-0.154-1.508-0.463-1.958C37.123,34.055,36.885,35.095,36.794,35.313z"/>
		<path fill="#231F20" d="M38.144,39.739c-0.089-0.87-0.639-1.525-1.228-1.464c-0.59,0.061-0.995,0.814-0.905,1.683
		c0.089,0.871,0.64,1.526,1.229,1.466C37.829,41.362,38.233,40.608,38.144,39.739z M37.137,38.623
		c0.825,0.663,0.634,1.715,0.554,1.936C37.743,39.688,37.467,39.061,37.137,38.623z"/>
		<path fill="#231F20" d="M39.491,44.085c-0.72-0.493-1.576-0.499-1.911-0.011c-0.336,0.487-0.022,1.285,0.699,1.78
		c0.721,0.494,1.577,0.499,1.912,0.011C40.526,45.376,40.212,44.58,39.491,44.085z M38.467,43.994
		c1.054,0.076,1.497,1.047,1.559,1.275C39.571,44.524,38.986,44.166,38.467,43.994z"/>
		<path fill="#231F20" d="M41.669,33.34c-0.658-0.576-1.507-0.681-1.896-0.234c-0.391,0.445-0.172,1.274,0.485,1.85
		c0.658,0.574,1.508,0.681,1.897,0.233C42.545,34.744,42.329,33.915,41.669,33.34z M40.208,33.148
		c1.058-0.029,1.595,0.893,1.678,1.113C41.36,33.565,40.742,33.268,40.208,33.148z"/>
		<path fill="#231F20" d="M45.84,39.739c0.391-0.447,0.172-1.273-0.486-1.85c-0.659-0.575-1.508-0.681-1.898-0.234
		c-0.389,0.446-0.172,1.273,0.486,1.851C44.601,40.081,45.45,40.185,45.84,39.739z M44.124,37.576
		c1.046,0.154,1.415,1.155,1.46,1.388C45.188,38.188,44.629,37.786,44.124,37.576z"/>
		<path fill="#231F20" d="M49.467,44.849c0.462-0.37,0.395-1.224-0.152-1.906c-0.546-0.684-1.364-0.937-1.826-0.567
		c-0.463,0.371-0.396,1.226,0.15,1.907C48.185,44.965,49.004,45.219,49.467,44.849z M49.459,43.899
		c-0.396-0.776-0.953-1.178-1.459-1.387C49.047,42.666,49.416,43.668,49.459,43.899z"/>
		<path fill="#231F20" d="M51.315,47.144c-0.462,0.369-0.394,1.224,0.153,1.906c0.546,0.682,1.362,0.936,1.825,0.565
		c0.462-0.37,0.396-1.223-0.151-1.906C52.597,47.025,51.779,46.772,51.315,47.144z M53.239,48.69
		c-0.396-0.776-0.954-1.178-1.46-1.386C52.826,47.457,53.195,48.459,53.239,48.69z"/>
	</g>
</svg>
